Atma-Light.ufo
<glyph name="percent" format="1">
  <advance width="758"/>
  <unicode hex="0025"/>
  <outline>
    <contour>
      <point x="204" y="751" type="curve"/>
      <point x="105" y="751"/>
      <point x="40" y="670"/>
      <point x="40" y="523" type="curve"/>
      <point x="40" y="409"/>
      <point x="90" y="316"/>
      <point x="177" y="316" type="curve" smooth="yes"/>
      <point x="276" y="316"/>
      <point x="328" y="414"/>
      <point x="328" y="573" type="curve"/>
      <point x="328" y="677"/>
      <point x="285" y="751"/>
    </contour>
    <contour>
      <point x="192" y="714" type="curve" smooth="yes"/>
      <point x="251" y="714"/>
      <point x="275" y="657"/>
      <point x="275" y="546" type="curve" smooth="yes"/>
      <point x="275" y="430"/>
      <point x="241" y="353"/>
      <point x="185" y="353" type="curve" smooth="yes"/>
      <point x="128" y="353"/>
      <point x="93" y="428"/>
      <point x="93" y="530" type="curve" smooth="yes"/>
      <point x="93" y="646"/>
      <point x="136" y="714"/>
    </contour>
    <contour>
      <point x="594" y="425" type="curve"/>
      <point x="495" y="425"/>
      <point x="430" y="344"/>
      <point x="430" y="197" type="curve"/>
      <point x="430" y="83"/>
      <point x="480" y="-10"/>
      <point x="567" y="-10" type="curve" smooth="yes"/>
      <point x="666" y="-10"/>
      <point x="718" y="88"/>
      <point x="718" y="247" type="curve"/>
      <point x="718" y="351"/>
      <point x="675" y="425"/>
    </contour>
    <contour>
      <point x="582" y="388" type="curve" smooth="yes"/>
      <point x="641" y="388"/>
      <point x="665" y="331"/>
      <point x="665" y="220" type="curve" smooth="yes"/>
      <point x="665" y="104"/>
      <point x="631" y="27"/>
      <point x="575" y="27" type="curve" smooth="yes"/>
      <point x="518" y="27"/>
      <point x="483" y="102"/>
      <point x="483" y="204" type="curve" smooth="yes"/>
      <point x="483" y="320"/>
      <point x="526" y="388"/>
    </contour>
    <component base="fraction" xOffset="197" yOffset="-3"/>
  </outline>
</glyph>
<glyph name="quotesingle" format="1">
  <advance width="119.685960588"/>
  <unicode hex="0027"/>
  <outline>
    <contour>
      <point x="79" y="736" type="curve"/>
      <point x="71" y="737"/>
      <point x="69" y="738"/>
      <point x="61" y="738" type="curve" smooth="yes"/>
      <point x="51" y="738"/>
      <point x="35" y="737"/>
      <point x="25" y="735" type="curve"/>
      <point x="31" y="656"/>
      <point x="32" y="594"/>
      <point x="31" y="499" type="curve"/>
      <point x="43" y="498"/>
      <point x="58" y="498"/>
      <point x="68" y="501" type="curve"/>
      <point x="79" y="618"/>
      <point x="81" y="675"/>
    </contour>
  </outline>
</glyph>
<glyph name="comma" format="1">
  <advance width="114"/>
  <unicode hex="002C"/>
  <outline>
    <contour>
      <point x="92" y="68" type="curve"/>
      <point x="73" y="70"/>
      <point x="55" y="71"/>
      <point x="37" y="70" type="curve"/>
      <point x="33" y="-23"/>
      <point x="22" y="-102"/>
      <point x="-5" y="-210" type="curve"/>
      <point x="9" y="-215"/>
      <point x="21" y="-218"/>
      <point x="33" y="-220" type="curve"/>
      <point x="74" y="-105"/>
      <point x="90" y="-22"/>
    </contour>
  </outline>
</glyph>
<glyph name="period" format="1">
  <advance width="149"/>
  <unicode hex="002E"/>
  <outline>
    <contour>
      <point x="112" y="25"/>
      <point x="113" y="45"/>
      <point x="114" y="69" type="curve"/>
      <point x="81" y="74"/>
      <point x="54" y="70"/>
      <point x="35" y="66" type="curve"/>
      <point x="35" y="42"/>
      <point x="37" y="27"/>
      <point x="38" y="1" type="curve"/>
      <point x="61" y="-2"/>
      <point x="81" y="-2"/>
      <point x="108" y="1" type="curve"/>
    </contour>
  </outline>
</glyph>
<glyph name="six" format="1">
  <advance width="447"/>
  <unicode hex="0036"/>
  <outline>
    <contour>
      <point x="260" y="647" type="curve" smooth="yes"/>
      <point x="172" y="647"/>
      <point x="95" y="527"/>
      <point x="95" y="302" type="curve" smooth="yes"/>
      <point x="95" y="115"/>
      <point x="150" y="-6"/>
      <point x="239" y="-6" type="curve" smooth="yes"/>
      <point x="316" y="-6"/>
      <point x="367" y="76"/>
      <point x="367" y="164" type="curve" smooth="yes"/>
      <point x="367" y="269"/>
      <point x="322" y="334"/>
      <point x="245" y="334" type="curve" smooth="yes"/>
      <point x="178" y="334"/>
      <point x="123" y="267"/>
      <point x="97" y="169" type="curve"/>
      <point x="78" y="223" type="line"/>
      <point x="105" y="306"/>
      <point x="161" y="378"/>
      <point x="255" y="378" type="curve" smooth="yes"/>
      <point x="362" y="378"/>
      <point x="422" y="289"/>
      <point x="422" y="191" type="curve" smooth="yes"/>
      <point x="422" y="56"/>
      <point x="355" y="-50"/>
      <point x="233" y="-50" type="curve" smooth="yes"/>
      <point x="115" y="-50"/>
      <point x="40" y="81"/>
      <point x="40" y="293" type="curve" smooth="yes"/>
      <point x="40" y="547"/>
      <point x="125" y="691"/>
      <point x="267" y="691" type="curve" smooth="yes"/>
      <point x="351" y="691"/>
      <point x="401" y="635"/>
      <point x="419" y="505" type="curve"/>
      <point x="401" y="497"/>
      <point x="385" y="492"/>
      <point x="365" y="488" type="curve"/>
      <point x="355" y="594"/>
      <point x="323" y="647"/>
    </contour>
  </outline>
</glyph>
<glyph name="A" format="1">
  <advance width="605"/>
  <unicode hex="0041"/>
  <outline>
    <contour>
      <point x="582" y="-85" type="curve"/>
      <point x="531" y="266"/>
      <point x="466" y="453"/>
      <point x="343" y="698" type="curve"/>
      <point x="323" y="702"/>
      <point x="306" y="703"/>
      <point x="280" y="705" type="curve"/>
      <point x="222" y="439"/>
      <point x="165" y="254"/>
      <point x="25" y="8" type="curve"/>
      <point x="38" y="-3"/>
      <point x="51" y="-14"/>
      <point x="77" y="-20" type="curve"/>
      <point x="208" y="232"/>
      <point x="266" y="410"/>
      <point x="321" y="669" type="curve"/>
      <point x="292" y="678" type="line"/>
      <point x="409" y="454"/>
      <point x="469" y="277"/>
      <point x="526" y="-103" type="curve"/>
      <point x="548" y="-99"/>
      <point x="563" y="-95"/>
    </contour>
    <contour>
      <point x="489" y="233" type="curve"/>
      <point x="482" y="280" type="line"/>
      <point x="377" y="280"/>
      <point x="255" y="272"/>
      <point x="157" y="253" type="curve"/>
      <point x="159" y="210" type="line"/>
      <point x="249" y="228"/>
      <point x="369" y="236"/>
    </contour>
    <contour>
      <point x="309" y="745" type="move" name="top"/>
    </contour>
  </outline>
</glyph>
<glyph name="D" format="1">
  <advance width="566"/>
  <unicode hex="0044"/>
  <outline>
    <contour>
      <point x="131" y="-12" type="curve"/>
      <point x="127" y="68"/>
      <point x="125" y="132"/>
      <point x="125" y="236" type="curve" smooth="yes"/>
      <point x="125" y="390"/>
      <point x="123" y="474"/>
      <point x="135" y="675" type="curve"/>
      <point x="133" y="676"/>
      <point x="74" y="679"/>
      <point x="71" y="678" type="curve"/>
      <point x="69" y="627"/>
      <point x="68" y="558"/>
      <point x="68" y="508" type="curve" smooth="yes"/>
      <point x="68" y="346"/>
      <point x="71" y="205"/>
      <point x="81" y="-5" type="curve"/>
      <point x="83" y="-5"/>
      <point x="130" y="-12"/>
    </contour>
    <contour>
      <point x="522" y="445" type="curve" smooth="yes"/>
      <point x="522" y="611"/>
      <point x="437" y="717"/>
      <point x="249" y="717" type="curve" smooth="yes"/>
      <point x="181" y="717"/>
      <point x="122" y="704"/>
      <point x="71" y="678" type="curve"/>
      <point x="72" y="677"/>
      <point x="81" y="628"/>
      <point x="82" y="626" type="curve"/>
      <point x="128" y="655"/>
      <point x="176" y="670"/>
      <point x="234" y="670" type="curve" smooth="yes"/>
      <point x="394" y="670"/>
      <point x="461" y="582"/>
      <point x="461" y="448" type="curve" smooth="yes"/>
      <point x="461" y="263"/>
      <point x="355" y="109"/>
      <point x="96" y="23" type="curve"/>
      <point x="131" y="-12" type="line"/>
      <point x="376" y="67"/>
      <point x="522" y="243"/>
    </contour>
  </outline>
</glyph>
<glyph name="I" format="1">
  <advance width="219"/>
  <unicode hex="0049"/>
  <outline>
    <contour>
      <point x="131" y="-22" type="curve"/>
      <point x="138" y="206"/>
      <point x="136" y="332"/>
      <point x="136" y="481" type="curve" smooth="yes"/>
      <point x="136" y="552"/>
      <point x="135" y="610"/>
      <point x="130" y="677" type="curve"/>
      <point x="124" y="678"/>
      <point x="118" y="679"/>
      <point x="110" y="679" type="curve" smooth="yes"/>
      <point x="95" y="679"/>
      <point x="82" y="676"/>
      <point x="69" y="670" type="curve"/>
      <point x="83" y="454"/>
      <point x="87" y="217"/>
      <point x="83" y="-28" type="curve"/>
      <point x="101" y="-27"/>
      <point x="121" y="-25"/>
    </contour>
  </outline>
</glyph>
<glyph name="M" format="1">
  <advance width="724"/>
  <unicode hex="004D"/>
  <outline>
    <contour>
      <point x="637" y="736" type="curve"/>
      <point x="619" y="744"/>
      <point x="599" y="750"/>
      <point x="579" y="754" type="curve"/>
      <point x="471" y="569"/>
      <point x="393" y="396"/>
      <point x="342" y="208" type="curve"/>
      <point x="373" y="206" type="line"/>
      <point x="322" y="413"/>
      <point x="232" y="608"/>
      <point x="131" y="754" type="curve"/>
      <point x="111" y="749"/>
      <point x="92" y="741"/>
      <point x="74" y="732" type="curve"/>
      <point x="205" y="544"/>
      <point x="279" y="373"/>
      <point x="338" y="169" type="curve"/>
      <point x="351" y="168"/>
      <point x="366" y="170"/>
      <point x="378" y="175" type="curve"/>
      <point x="451" y="413"/>
      <point x="529" y="576"/>
    </contour>
    <contour>
      <point x="122" y="517" type="curve" smooth="yes"/>
      <point x="122" y="605"/>
      <point x="120" y="627"/>
      <point x="134" y="721" type="curve"/>
      <point x="74" y="732" type="line"/>
      <point x="64" y="501"/>
      <point x="79" y="219"/>
      <point x="116" y="-4" type="curve"/>
      <point x="134" y="-5"/>
      <point x="153" y="-2"/>
      <point x="170" y="4" type="curve"/>
      <point x="136" y="206"/>
      <point x="122" y="378"/>
    </contour>
    <contour>
      <point x="633" y="-49" type="curve"/>
      <point x="641" y="197"/>
      <point x="648" y="510"/>
      <point x="637" y="736" type="curve"/>
      <point x="588" y="736" type="line"/>
      <point x="594" y="371"/>
      <point x="590" y="174"/>
      <point x="576" y="-58" type="curve"/>
      <point x="596" y="-58"/>
      <point x="615" y="-55"/>
    </contour>
  </outline>
</glyph>
<glyph name="Q" format="1">
  <advance width="580"/>
  <unicode hex="0051"/>
  <outline>
    <contour>
      <point x="531" y="357" type="curve" smooth="yes"/>
      <point x="531" y="531"/>
      <point x="471" y="673"/>
      <point x="318" y="673" type="curve" smooth="yes"/>
      <point x="152" y="673"/>
      <point x="44" y="505"/>
      <point x="44" y="278" type="curve" smooth="yes"/>
      <point x="44" y="73"/>
      <point x="141" y="-40"/>
      <point x="262" y="-40" type="curve" smooth="yes"/>
      <point x="428" y="-40"/>
      <point x="531" y="138"/>
    </contour>
    <contour>
      <point x="311" y="625" type="curve" smooth="yes"/>
      <point x="418" y="625"/>
      <point x="471" y="528"/>
      <point x="471" y="346" type="curve" smooth="yes"/>
      <point x="471" y="147"/>
      <point x="389" y="7"/>
      <point x="263" y="7" type="curve" smooth="yes"/>
      <point x="164" y="7"/>
      <point x="104" y="114"/>
      <point x="104" y="287" type="curve" smooth="yes"/>
      <point x="104" y="491"/>
      <point x="190" y="625"/>
    </contour>
    <contour>
      <point x="528" y="-101" type="curve"/>
      <point x="543" y="-91"/>
      <point x="557" y="-76"/>
      <point x="568" y="-60" type="curve"/>
      <point x="457" y="77"/>
      <point x="414" y="120"/>
      <point x="321" y="190" type="curve"/>
      <point x="310" y="183"/>
      <point x="302" y="166"/>
      <point x="295" y="157" type="curve"/>
      <point x="384" y="86"/>
      <point x="439" y="25"/>
    </contour>
  </outline>
</glyph>
<glyph name="S" format="1">
  <advance width="461"/>
  <unicode hex="0053"/>
  <outline>
    <contour>
      <point x="417" y="140" type="curve" smooth="yes"/>
      <point x="417" y="395"/>
      <point x="141" y="360"/>
      <point x="141" y="587" type="curve" smooth="yes"/>
      <point x="141" y="675"/>
      <point x="179" y="720"/>
      <point x="246" y="720" type="curve" smooth="yes"/>
      <point x="311" y="720"/>
      <point x="349" y="684"/>
      <point x="363" y="565" type="curve"/>
      <point x="385" y="566"/>
      <point x="402" y="569"/>
      <point x="418" y="578" type="curve"/>
      <point x="397" y="694"/>
      <point x="361" y="767"/>
      <point x="249" y="767" type="curve" smooth="yes"/>
      <point x="149" y="767"/>
      <point x="81" y="700"/>
      <point x="81" y="584" type="curve" smooth="yes"/>
      <point x="81" y="325"/>
      <point x="357" y="362"/>
      <point x="357" y="137" type="curve" smooth="yes"/>
      <point x="357" y="61"/>
      <point x="312" y="7"/>
      <point x="239" y="7" type="curve" smooth="yes"/>
      <point x="138" y="7"/>
      <point x="95" y="110"/>
      <point x="96" y="246" type="curve"/>
      <point x="74" y="244"/>
      <point x="54" y="238"/>
      <point x="38" y="229" type="curve"/>
      <point x="38" y="107"/>
      <point x="83" y="-40"/>
      <point x="240" y="-40" type="curve" smooth="yes"/>
      <point x="342" y="-40"/>
      <point x="417" y="32"/>
    </contour>
  </outline>
</glyph>
<glyph name="U" format="1">
  <advance width="538"/>
  <unicode hex="0055"/>
  <outline>
    <contour>
      <point x="474" y="363" type="curve" smooth="yes"/>
      <point x="474" y="490"/>
      <point x="453" y="606"/>
      <point x="427" y="705" type="curve"/>
      <point x="401" y="703"/>
      <point x="384" y="700"/>
      <point x="365" y="694" type="curve"/>
      <point x="400" y="560"/>
      <point x="414" y="457"/>
      <point x="414" y="316" type="curve" smooth="yes"/>
      <point x="414" y="104"/>
      <point x="357" y="-31"/>
      <point x="246" y="-31" type="curve" smooth="yes"/>
      <point x="162" y="-31"/>
      <point x="119" y="41"/>
      <point x="119" y="293" type="curve" smooth="yes"/>
      <point x="119" y="403"/>
      <point x="138" y="521"/>
      <point x="166" y="632" type="curve"/>
      <point x="160" y="633"/>
      <point x="153" y="634"/>
      <point x="144" y="634" type="curve" smooth="yes"/>
      <point x="136" y="634"/>
      <point x="118" y="633"/>
      <point x="108" y="630" type="curve"/>
      <point x="83" y="553"/>
      <point x="58" y="408"/>
      <point x="58" y="274" type="curve" smooth="yes"/>
      <point x="58" y="3"/>
      <point x="132" y="-80"/>
      <point x="235" y="-80" type="curve" smooth="yes"/>
      <point x="384" y="-80"/>
      <point x="474" y="40"/>
    </contour>
  </outline>
</glyph>
<glyph name="Y" format="1">
  <advance width="504"/>
  <unicode hex="0059"/>
  <outline>
    <contour>
      <point x="283" y="224" type="line"/>
      <point x="194" y="365"/>
      <point x="124" y="516"/>
      <point x="82" y="727" type="curve"/>
      <point x="59" y="725"/>
      <point x="39" y="719"/>
      <point x="18" y="710" type="curve"/>
      <point x="72" y="488"/>
      <point x="134" y="332"/>
      <point x="263" y="162" type="curve"/>
    </contour>
    <contour>
      <point x="144" y="-80" type="curve"/>
      <point x="325" y="161"/>
      <point x="395" y="412"/>
      <point x="465" y="689" type="curve"/>
      <point x="443" y="699"/>
      <point x="421" y="707"/>
      <point x="399" y="713" type="curve"/>
      <point x="348" y="407"/>
      <point x="268" y="178"/>
      <point x="96" y="-59" type="curve"/>
      <point x="110" y="-68"/>
      <point x="126" y="-75"/>
    </contour>
  </outline>
</glyph>
<glyph name="h" format="1">
  <advance width="444"/>
  <unicode hex="0068"/>
  <outline>
    <contour>
      <point x="393" y="323" type="curve" smooth="yes"/>
      <point x="393" y="470"/>
      <point x="352" y="523"/>
      <point x="264" y="523" type="curve" smooth="yes"/>
      <point x="193" y="523"/>
      <point x="126" y="449"/>
      <point x="90" y="352" type="curve"/>
      <point x="99" y="258" type="line"/>
      <point x="129" y="411"/>
      <point x="207" y="476"/>
      <point x="261" y="476" type="curve" smooth="yes"/>
      <point x="318" y="476"/>
      <point x="338" y="436"/>
      <point x="338" y="322" type="curve" smooth="yes"/>
      <point x="338" y="208"/>
      <point x="310" y="81"/>
      <point x="273" y="-15" type="curve"/>
      <point x="287" y="-24"/>
      <point x="303" y="-29"/>
      <point x="319" y="-32" type="curve"/>
      <point x="340" y="16"/>
      <point x="393" y="189"/>
    </contour>
    <contour>
      <point x="72" y="27" type="curve"/>
      <point x="88" y="27"/>
      <point x="109" y="29"/>
      <point x="122" y="33" type="curve"/>
      <point x="117" y="72"/>
      <point x="105" y="223"/>
      <point x="105" y="319" type="curve" smooth="yes"/>
      <point x="105" y="458"/>
      <point x="124" y="623"/>
      <point x="150" y="747" type="curve"/>
      <point x="137" y="750"/>
      <point x="129" y="755"/>
      <point x="116" y="755" type="curve" smooth="yes"/>
      <point x="102" y="755"/>
      <point x="91" y="750"/>
      <point x="79" y="744" type="curve"/>
      <point x="68" y="675"/>
      <point x="57" y="491"/>
      <point x="57" y="378" type="curve" smooth="yes"/>
      <point x="57" y="278"/>
      <point x="62" y="160"/>
    </contour>
  </outline>
</glyph>
<glyph name="i" format="1">
  <advance width="189"/>
  <unicode hex="0069"/>
  <outline>
    <contour>
      <point x="148" y="661"/>
      <point x="163" y="701"/>
      <point x="176" y="729" type="curve"/>
      <point x="164" y="736"/>
      <point x="155" y="738"/>
      <point x="142" y="739" type="curve" smooth="yes"/>
      <point x="129" y="740"/>
      <point x="123" y="739"/>
      <point x="112" y="735" type="curve"/>
      <point x="100" y="709"/>
      <point x="94" y="669"/>
      <point x="94" y="643" type="curve" smooth="yes"/>
      <point x="94" y="635"/>
      <point x="94" y="629"/>
      <point x="95" y="621" type="curve"/>
      <point x="111" y="620"/>
      <point x="129" y="620"/>
      <point x="139" y="621" type="curve"/>
    </contour>
    <contour>
      <point x="123" y="507"/>
      <point x="117" y="508"/>
      <point x="111" y="508" type="curve" smooth="yes"/>
      <point x="98" y="508"/>
      <point x="86" y="504"/>
      <point x="75" y="498" type="curve"/>
      <point x="49" y="361"/>
      <point x="43" y="166"/>
      <point x="66" y="-7" type="curve"/>
      <point x="70" y="-8"/>
      <point x="75" y="-9"/>
      <point x="82" y="-9" type="curve" smooth="yes"/>
      <point x="92" y="-9"/>
      <point x="101" y="-7"/>
      <point x="108" y="-4" type="curve"/>
      <point x="93" y="161"/>
      <point x="106" y="369"/>
      <point x="130" y="505" type="curve"/>
    </contour>
  </outline>
</glyph>
<glyph name="k" format="1">
  <advance width="424"/>
  <unicode hex="006B"/>
  <outline>
    <contour>
      <point x="141" y="731" type="curve"/>
      <point x="126" y="735"/>
      <point x="108" y="736"/>
      <point x="82" y="732" type="curve"/>
      <point x="61" y="587"/>
      <point x="52" y="445"/>
      <point x="52" y="306" type="curve" smooth="yes"/>
      <point x="52" y="185"/>
      <point x="58" y="96"/>
      <point x="71" y="-49" type="curve"/>
      <point x="84" y="-49"/>
      <point x="108" y="-46"/>
      <point x="122" y="-44" type="curve"/>
      <point x="109" y="63"/>
      <point x="104" y="157"/>
      <point x="104" y="244" type="curve" smooth="yes"/>
      <point x="104" y="415"/>
      <point x="115" y="561"/>
    </contour>
    <contour>
      <point x="340" y="579" type="curve"/>
      <point x="251" y="437"/>
      <point x="194" y="380"/>
      <point x="67" y="274" type="curve"/>
      <point x="86" y="238" type="line"/>
      <point x="248" y="365"/>
      <point x="297" y="424"/>
      <point x="378" y="550" type="curve"/>
      <point x="367" y="562"/>
      <point x="354" y="571"/>
    </contour>
    <contour>
      <point x="151" y="344" type="curve"/>
      <point x="121" y="304" type="line"/>
      <point x="222" y="165"/>
      <point x="275" y="109"/>
      <point x="370" y="37" type="curve"/>
      <point x="386" y="49"/>
      <point x="396" y="67"/>
      <point x="404" y="81" type="curve"/>
      <point x="280" y="166"/>
      <point x="226" y="226"/>
    </contour>
  </outline>
</glyph>
<glyph name="n" format="1">
  <advance width="437"/>
  <unicode hex="006E"/>
  <outline>
    <contour>
      <point x="349" y="57"/>
      <point x="376" y="206"/>
      <point x="376" y="338" type="curve" smooth="yes"/>
      <point x="376" y="477"/>
      <point x="336" y="523"/>
      <point x="261" y="523" type="curve" smooth="yes"/>
      <point x="204" y="523"/>
      <point x="143" y="481"/>
      <point x="85" y="355" type="curve"/>
      <point x="103" y="316" type="line"/>
      <point x="141" y="421"/>
      <point x="199" y="472"/>
      <point x="249" y="472" type="curve" smooth="yes"/>
      <point x="301" y="472"/>
      <point x="321" y="433"/>
      <point x="321" y="342" type="curve" smooth="yes"/>
      <point x="321" y="236"/>
      <point x="308" y="138"/>
      <point x="287" y="24" type="curve"/>
      <point x="298" y="18"/>
      <point x="321" y="13"/>
      <point x="337" y="12" type="curve"/>
    </contour>
    <contour>
      <point x="52" y="353"/>
      <point x="59" y="94"/>
      <point x="66" y="-35" type="curve"/>
      <point x="82" y="-35"/>
      <point x="101" y="-32"/>
      <point x="114" y="-27" type="curve"/>
      <point x="108" y="19"/>
      <point x="106" y="139"/>
      <point x="106" y="180" type="curve" smooth="yes"/>
      <point x="106" y="277"/>
      <point x="113" y="435"/>
      <point x="120" y="524" type="curve"/>
      <point x="108" y="526"/>
      <point x="98" y="527"/>
      <point x="88" y="527" type="curve" smooth="yes"/>
      <point x="75" y="527"/>
      <point x="62" y="524"/>
      <point x="52" y="519" type="curve"/>
    </contour>
  </outline>
</glyph>
<glyph name="o" format="1">
  <advance width="431"/>
  <unicode hex="006F"/>
  <outline>
    <contour>
      <point x="230" y="533" type="curve" smooth="yes"/>
      <point x="115" y="533"/>
      <point x="31" y="418"/>
      <point x="31" y="244" type="curve" smooth="yes"/>
      <point x="31" y="105"/>
      <point x="91" y="-10"/>
      <point x="200" y="-10" type="curve" smooth="yes"/>
      <point x="317" y="-10"/>
      <point x="390" y="128"/>
      <point x="390" y="317" type="curve" smooth="yes"/>
      <point x="390" y="446"/>
      <point x="331" y="533"/>
    </contour>
    <contour>
      <point x="217" y="488" type="curve" smooth="yes"/>
      <point x="289" y="488"/>
      <point x="331" y="429"/>
      <point x="331" y="277" type="curve" smooth="yes"/>
      <point x="331" y="132"/>
      <point x="268" y="35"/>
      <point x="208" y="35" type="curve" smooth="yes"/>
      <point x="120" y="35"/>
      <point x="86" y="156"/>
      <point x="86" y="251" type="curve" smooth="yes"/>
      <point x="86" y="390"/>
      <point x="151" y="488"/>
    </contour>
  </outline>
</glyph>
<glyph name="u" format="1">
  <advance width="386"/>
  <unicode hex="0075"/>
  <outline>
    <contour>
      <point x="56" y="465"/>
      <point x="41" y="358"/>
      <point x="41" y="271" type="curve" smooth="yes"/>
      <point x="41" y="131"/>
      <point x="68" y="-10"/>
      <point x="177" y="-10" type="curve" smooth="yes"/>
      <point x="315" y="-10"/>
      <point x="345" y="188"/>
      <point x="345" y="355" type="curve" smooth="yes"/>
      <point x="345" y="399"/>
      <point x="341" y="443"/>
      <point x="335" y="472" type="curve"/>
      <point x="319" y="472"/>
      <point x="294" y="468"/>
      <point x="278" y="461" type="curve"/>
      <point x="282" y="445"/>
      <point x="290" y="384"/>
      <point x="290" y="320" type="curve" smooth="yes"/>
      <point x="290" y="182"/>
      <point x="268" y="35"/>
      <point x="185" y="35" type="curve" smooth="yes"/>
      <point x="120" y="35"/>
      <point x="94" y="156"/>
      <point x="94" y="261" type="curve" smooth="yes"/>
      <point x="94" y="370"/>
      <point x="107" y="451"/>
      <point x="127" y="510" type="curve"/>
      <point x="121" y="513"/>
      <point x="114" y="515"/>
      <point x="106" y="515" type="curve" smooth="yes"/>
      <point x="96" y="515"/>
      <point x="87" y="513"/>
      <point x="80" y="510" type="curve"/>
    </contour>
  </outline>
</glyph>
<glyph name="braceleft" format="1">
  <advance width="285"/>
  <unicode hex="007B"/>
  <outline>
    <contour>
      <point x="240" y="-151" type="curve"/>
      <point x="239" y="-134"/>
      <point x="235" y="-119"/>
      <point x="228" y="-108" type="curve"/>
      <point x="212" y="-116"/>
      <point x="201" y="-119"/>
      <point x="180" y="-119" type="curve" smooth="yes"/>
      <point x="141" y="-119"/>
      <point x="116" y="-88"/>
      <point x="116" y="-39" type="curve" smooth="yes"/>
      <point x="116" y="55"/>
      <point x="204" y="116"/>
      <point x="204" y="210" type="curve" smooth="yes"/>
      <point x="204" y="278"/>
      <point x="168" y="325"/>
      <point x="97" y="333" type="curve"/>
      <point x="92" y="324" type="line"/>
      <point x="162" y="335"/>
      <point x="199" y="383"/>
      <point x="199" y="447" type="curve" smooth="yes"/>
      <point x="199" y="541"/>
      <point x="111" y="594"/>
      <point x="111" y="688" type="curve" smooth="yes"/>
      <point x="111" y="737"/>
      <point x="136" y="768"/>
      <point x="175" y="768" type="curve" smooth="yes"/>
      <point x="196" y="768"/>
      <point x="207" y="765"/>
      <point x="223" y="757" type="curve"/>
      <point x="232" y="770"/>
      <point x="236" y="785"/>
      <point x="235" y="800" type="curve"/>
      <point x="219" y="809"/>
      <point x="202" y="813"/>
      <point x="171" y="813" type="curve" smooth="yes"/>
      <point x="102" y="813"/>
      <point x="56" y="760"/>
      <point x="56" y="688" type="curve" smooth="yes"/>
      <point x="56" y="643"/>
      <point x="68" y="609"/>
      <point x="98" y="559" type="curve" smooth="yes"/>
      <point x="129" y="507"/>
      <point x="149" y="480"/>
      <point x="149" y="442" type="curve" smooth="yes"/>
      <point x="149" y="394"/>
      <point x="122" y="364"/>
      <point x="80" y="364" type="curve" smooth="yes"/>
      <point x="66" y="364"/>
      <point x="57" y="365"/>
      <point x="43" y="369" type="curve"/>
      <point x="39" y="351"/>
      <point x="38" y="316"/>
      <point x="44" y="288" type="curve"/>
      <point x="58" y="291"/>
      <point x="71" y="292"/>
      <point x="85" y="292" type="curve" smooth="yes"/>
      <point x="124" y="292"/>
      <point x="154" y="260"/>
      <point x="154" y="215" type="curve" smooth="yes"/>
      <point x="154" y="177"/>
      <point x="134" y="142"/>
      <point x="103" y="90" type="curve" smooth="yes"/>
      <point x="73" y="40"/>
      <point x="61" y="6"/>
      <point x="61" y="-39" type="curve" smooth="yes"/>
      <point x="61" y="-111"/>
      <point x="107" y="-164"/>
      <point x="176" y="-164" type="curve" smooth="yes"/>
      <point x="207" y="-164"/>
      <point x="223" y="-160"/>
    </contour>
  </outline>
</glyph>
<glyph name="sterling" format="1">
  <advance width="404"/>
  <unicode hex="00A3"/>
  <outline>
    <contour>
      <point x="353" y="283" type="curve" smooth="yes"/>
      <point x="354" y="289"/>
      <point x="354" y="295"/>
      <point x="354" y="301" type="curve"/>
      <point x="235" y="283"/>
      <point x="111" y="276"/>
      <point x="28" y="286" type="curve"/>
      <point x="23" y="273"/>
      <point x="26" y="259"/>
      <point x="28" y="244" type="curve"/>
      <point x="104" y="238"/>
      <point x="239" y="245"/>
      <point x="349" y="261" type="curve"/>
      <point x="351" y="268"/>
      <point x="352" y="276"/>
    </contour>
    <contour>
      <point x="211" y="168" type="curve" smooth="yes"/>
      <point x="211" y="285"/>
      <point x="96" y="327"/>
      <point x="96" y="480" type="curve" smooth="yes"/>
      <point x="96" y="571"/>
      <point x="140" y="629"/>
      <point x="211" y="629" type="curve" smooth="yes"/>
      <point x="282" y="629"/>
      <point x="322" y="576"/>
      <point x="316" y="440" type="curve"/>
      <point x="332" y="435"/>
      <point x="349" y="433"/>
      <point x="367" y="436" type="curve"/>
      <point x="373" y="591"/>
      <point x="321" y="673"/>
      <point x="212" y="673" type="curve" smooth="yes"/>
      <point x="107" y="673"/>
      <point x="41" y="585"/>
      <point x="41" y="478" type="curve" smooth="yes"/>
      <point x="41" y="374"/>
      <point x="101" y="303"/>
      <point x="130" y="262" type="curve" smooth="yes"/>
      <point x="156" y="225"/>
      <point x="167" y="203"/>
      <point x="167" y="162" type="curve" smooth="yes"/>
      <point x="167" y="113"/>
      <point x="145" y="74"/>
      <point x="77" y="39" type="curve"/>
      <point x="112" y="22" type="line"/>
      <point x="167" y="55"/>
      <point x="211" y="99"/>
    </contour>
    <contour>
      <point x="39" y="-4" type="curve"/>
      <point x="67" y="8"/>
      <point x="91" y="15"/>
      <point x="116" y="15" type="curve" smooth="yes"/>
      <point x="179" y="15"/>
      <point x="247" y="-10"/>
      <point x="393" y="6" type="curve"/>
      <point x="395.799179548" y="31.1926159322"/>
      <point x="393.504925563" y="43.0451571453"/>
      <point x="385" y="61" type="curve"/>
      <point x="336.040510163" y="50.5086807491"/>
      <point x="288" y="46"/>
      <point x="244" y="46" type="curve" smooth="yes"/>
      <point x="181" y="46"/>
      <point x="151.818181818" y="55.0"/>
      <point x="114" y="55" type="curve" smooth="yes"/>
      <point x="90.0989010989" y="55.0"/>
      <point x="58.6097500382" y="49.8751764886"/>
      <point x="27" y="35" type="curve"/>
      <point x="27" y="21"/>
      <point x="31" y="9"/>
    </contour>
  </outline>
</glyph>
<glyph name="copyright" format="1">
  <advance width="725"/>
  <unicode hex="00A9"/>
  <outline>
    <contour>
      <point x="481" y="281" type="curve"/>
      <point x="470" y="287"/>
      <point x="456" y="289"/>
      <point x="440" y="288" type="curve"/>
      <point x="443" y="227"/>
      <point x="417" y="187"/>
      <point x="370" y="187" type="curve" smooth="yes"/>
      <point x="319" y="187"/>
      <point x="291" y="237"/>
      <point x="291" y="329" type="curve" smooth="yes"/>
      <point x="291" y="441"/>
      <point x="337" y="503"/>
      <point x="381" y="503" type="curve"/>
      <point x="420" y="503"/>
      <point x="437" y="476"/>
      <point x="433" y="407" type="curve"/>
      <point x="454" y="407"/>
      <point x="469" y="410"/>
      <point x="482" y="418" type="curve"/>
      <point x="483" y="497"/>
      <point x="453" y="539"/>
      <point x="390" y="539" type="curve"/>
      <point x="298" y="539"/>
      <point x="237" y="446"/>
      <point x="237" y="318" type="curve" smooth="yes"/>
      <point x="237" y="207"/>
      <point x="285" y="150"/>
      <point x="361" y="150" type="curve" smooth="yes"/>
      <point x="436" y="150"/>
      <point x="477" y="198"/>
    </contour>
    <contour>
      <point x="625" y="347" type="curve" smooth="yes"/>
      <point x="625" y="151"/>
      <point x="534" y="36"/>
      <point x="363" y="36" type="curve" smooth="yes"/>
      <point x="200" y="36"/>
      <point x="100" y="151"/>
      <point x="100" y="335" type="curve" smooth="yes"/>
      <point x="100" y="515"/>
      <point x="226" y="654"/>
      <point x="378" y="654" type="curve" smooth="yes"/>
      <point x="544" y="654"/>
      <point x="625" y="527"/>
    </contour>
    <contour>
      <point x="680" y="345" type="curve" smooth="yes"/>
      <point x="680" y="541"/>
      <point x="595" y="698"/>
      <point x="390" y="698" type="curve" smooth="yes"/>
      <point x="184" y="698"/>
      <point x="45" y="556"/>
      <point x="45" y="322" type="curve" smooth="yes"/>
      <point x="45" y="120"/>
      <point x="175" y="-8"/>
      <point x="355" y="-8" type="curve" smooth="yes"/>
      <point x="553" y="-8"/>
      <point x="680" y="123"/>
    </contour>
  </outline>
</glyph>
<glyph name="registered" format="1">
  <advance width="725"/>
  <unicode hex="00AE"/>
  <outline>
    <contour>
      <point x="625" y="151"/>
      <point x="534" y="36"/>
      <point x="363" y="36" type="curve" smooth="yes"/>
      <point x="200" y="36"/>
      <point x="100" y="151"/>
      <point x="100" y="335" type="curve" smooth="yes"/>
      <point x="100" y="515"/>
      <point x="226" y="654"/>
      <point x="378" y="654" type="curve" smooth="yes"/>
      <point x="544" y="654"/>
      <point x="625" y="527"/>
      <point x="625" y="347" type="curve" smooth="yes"/>
    </contour>
    <contour>
      <point x="553" y="-8"/>
      <point x="680" y="123"/>
      <point x="680" y="345" type="curve" smooth="yes"/>
      <point x="680" y="541"/>
      <point x="595" y="698"/>
      <point x="390" y="698" type="curve" smooth="yes"/>
      <point x="184" y="698"/>
      <point x="45" y="556"/>
      <point x="45" y="322" type="curve" smooth="yes"/>
      <point x="45" y="120"/>
      <point x="175" y="-8"/>
      <point x="355" y="-8" type="curve" smooth="yes"/>
    </contour>
    <contour>
      <point x="301" y="146" type="curve"/>
      <point x="308" y="218"/>
      <point x="311" y="290"/>
      <point x="311" y="360" type="curve" smooth="yes"/>
      <point x="311" y="411"/>
      <point x="309" y="458"/>
      <point x="304" y="521" type="curve"/>
      <point x="295" y="523"/>
      <point x="260" y="525"/>
      <point x="249" y="523" type="curve"/>
      <point x="260" y="422"/>
      <point x="262" y="364"/>
      <point x="262" y="263" type="curve" smooth="yes"/>
      <point x="262" y="221"/>
      <point x="261" y="190"/>
      <point x="258" y="149" type="curve"/>
      <point x="270" y="146"/>
      <point x="289" y="145"/>
    </contour>
    <contour>
      <point x="305" y="295" type="line"/>
      <point x="424" y="326"/>
      <point x="483" y="379"/>
      <point x="483" y="457" type="curve" smooth="yes"/>
      <point x="483" y="516"/>
      <point x="442" y="560"/>
      <point x="364" y="560" type="curve" smooth="yes"/>
      <point x="324" y="560"/>
      <point x="280" y="546"/>
      <point x="249" y="523" type="curve"/>
      <point x="250" y="516"/>
      <point x="265" y="495"/>
      <point x="267" y="487" type="curve"/>
      <point x="291" y="509"/>
      <point x="324" y="526"/>
      <point x="359" y="526" type="curve" smooth="yes"/>
      <point x="404" y="526"/>
      <point x="431" y="499"/>
      <point x="431" y="449" type="curve" smooth="yes"/>
      <point x="431" y="387"/>
      <point x="389" y="349"/>
      <point x="298" y="329" type="curve"/>
    </contour>
    <contour>
      <point x="511" y="155" type="curve"/>
      <point x="468" y="248"/>
      <point x="430" y="309"/>
      <point x="394" y="347" type="curve"/>
      <point x="357" y="328" type="line"/>
      <point x="401" y="269"/>
      <point x="427" y="218"/>
      <point x="465" y="132" type="curve"/>
      <point x="482" y="136"/>
      <point x="502" y="146"/>
    </contour>
  </outline>
</glyph>
<glyph name="paragraph" format="1">
  <advance width="626.277669544"/>
  <unicode hex="00B6"/>
  <outline>
    <contour>
      <point x="527" y="-272" type="curve"/>
      <point x="561" y="149"/>
      <point x="561" y="367"/>
      <point x="549" y="724" type="curve"/>
      <point x="465" y="753"/>
      <point x="409" y="765"/>
      <point x="329" y="765" type="curve" smooth="yes"/>
      <point x="155" y="765"/>
      <point x="74" y="680"/>
      <point x="74" y="571" type="curve" smooth="yes"/>
      <point x="74" y="433"/>
      <point x="172" y="334"/>
      <point x="404" y="263" type="curve"/>
      <point x="403" y="102"/>
      <point x="397" y="-21"/>
      <point x="381" y="-273" type="curve"/>
      <point x="396" y="-275"/>
      <point x="415" y="-274"/>
      <point x="429" y="-272" type="curve"/>
      <point x="465" y="175"/>
      <point x="461" y="346"/>
      <point x="450" y="706" type="curve"/>
      <point x="465" y="702"/>
      <point x="480" y="698"/>
      <point x="494" y="693" type="curve"/>
      <point x="513" y="321"/>
      <point x="510" y="208"/>
      <point x="479" y="-273" type="curve"/>
      <point x="495" y="-274"/>
      <point x="511" y="-274"/>
    </contour>
  </outline>
</glyph>
<glyph name="guillemotright" format="1">
  <advance width="448"/>
  <unicode hex="00BB"/>
  <outline>
    <contour>
      <point x="67" y="70" type="curve"/>
      <point x="144" y="128"/>
      <point x="199" y="190"/>
      <point x="241" y="264" type="curve"/>
      <point x="199" y="277" type="line"/>
      <point x="167" y="223"/>
      <point x="110" y="163"/>
      <point x="30" y="109" type="curve"/>
      <point x="43" y="91"/>
      <point x="52" y="80"/>
    </contour>
    <contour>
      <point x="34" y="396" type="curve"/>
      <point x="87" y="325"/>
      <point x="144" y="273"/>
      <point x="210" y="233" type="curve"/>
      <point x="241" y="264" type="line"/>
      <point x="187" y="296"/>
      <point x="127" y="353"/>
      <point x="73" y="433" type="curve"/>
      <point x="55" y="420"/>
      <point x="44" y="411"/>
    </contour>
    <contour>
      <point x="264" y="70" type="curve"/>
      <point x="341" y="128"/>
      <point x="396" y="190"/>
      <point x="438" y="264" type="curve"/>
      <point x="396" y="277" type="line"/>
      <point x="364" y="223"/>
      <point x="307" y="163"/>
      <point x="227" y="109" type="curve"/>
      <point x="240" y="91"/>
      <point x="249" y="80"/>
    </contour>
    <contour>
      <point x="231" y="396" type="curve"/>
      <point x="284" y="325"/>
      <point x="341" y="273"/>
      <point x="407" y="233" type="curve"/>
      <point x="438" y="264" type="line"/>
      <point x="384" y="296"/>
      <point x="324" y="353"/>
      <point x="270" y="433" type="curve"/>
      <point x="252" y="420"/>
      <point x="241" y="411"/>
    </contour>
  </outline>
</glyph>
<glyph name="AE" format="1">
  <advance width="804.313708499"/>
  <unicode hex="00C6"/>
  <outline>
    <contour>
      <point x="367" y="689" type="curve"/>
      <point x="351" y="693"/>
      <point x="336" y="696"/>
      <point x="315" y="698" type="curve"/>
      <point x="244" y="422"/>
      <point x="174" y="240"/>
      <point x="27" y="5" type="curve"/>
      <point x="39" y="-7"/>
      <point x="52" y="-18"/>
      <point x="79" y="-25" type="curve"/>
      <point x="221" y="222"/>
      <point x="291" y="399"/>
    </contour>
    <contour>
      <point x="762" y="-18" type="curve"/>
      <point x="764" y="-6"/>
      <point x="764" y="15"/>
      <point x="760" y="32" type="curve"/>
      <point x="664" y="11"/>
      <point x="586" y="4"/>
      <point x="472" y="0" type="curve"/>
      <point x="452" y="127"/>
      <point x="439" y="245"/>
      <point x="431" y="330" type="curve" smooth="yes"/>
      <point x="418" y="473"/>
      <point x="415" y="578"/>
      <point x="417" y="683" type="curve"/>
      <point x="357" y="689" type="line"/>
      <point x="360" y="506"/>
      <point x="384" y="230"/>
      <point x="425" y="-45" type="curve"/>
      <point x="529" y="-42"/>
      <point x="622" y="-37"/>
    </contour>
    <contour>
      <point x="693" y="363" type="curve"/>
      <point x="694" y="380"/>
      <point x="692" y="395"/>
      <point x="689" y="408" type="curve"/>
      <point x="583" y="398"/>
      <point x="506" y="384"/>
      <point x="411" y="369" type="curve"/>
      <point x="413" y="326" type="line"/>
      <point x="509" y="344"/>
      <point x="568" y="353"/>
    </contour>
    <contour>
      <point x="736" y="684" type="curve"/>
      <point x="739" y="699"/>
      <point x="740" y="714"/>
      <point x="739" y="731" type="curve"/>
      <point x="581" y="727"/>
      <point x="483" y="711"/>
      <point x="357" y="689" type="curve"/>
      <point x="379" y="646" type="line"/>
      <point x="487" y="668"/>
      <point x="598" y="683"/>
    </contour>
    <contour>
      <point x="417" y="254" type="line"/>
      <point x="335" y="251"/>
      <point x="249" y="243"/>
      <point x="177" y="229" type="curve"/>
      <point x="179" y="186" type="line"/>
      <point x="248" y="200"/>
      <point x="336" y="208"/>
      <point x="427" y="209" type="curve"/>
    </contour>
  </outline>
</glyph>
<glyph name="Eth" format="1">
  <advance width="566"/>
  <unicode hex="00D0"/>
  <outline>
    <contour>
      <point x="131" y="-12" type="curve"/>
      <point x="127" y="68"/>
      <point x="125" y="132"/>
      <point x="125" y="236" type="curve" smooth="yes"/>
      <point x="125" y="390"/>
      <point x="123" y="474"/>
      <point x="135" y="675" type="curve"/>
      <point x="133" y="676"/>
      <point x="74" y="679"/>
      <point x="71" y="678" type="curve"/>
      <point x="69" y="627"/>
      <point x="68" y="558"/>
      <point x="68" y="508" type="curve" smooth="yes"/>
      <point x="68" y="346"/>
      <point x="71" y="205"/>
      <point x="81" y="-5" type="curve"/>
      <point x="83" y="-5"/>
      <point x="130" y="-12"/>
    </contour>
    <contour>
      <point x="522" y="445" type="curve" smooth="yes"/>
      <point x="522" y="611"/>
      <point x="439" y="717"/>
      <point x="234" y="717" type="curve" smooth="yes"/>
      <point x="181" y="717"/>
      <point x="122" y="702"/>
      <point x="71" y="678" type="curve"/>
      <point x="72" y="677"/>
      <point x="92" y="636"/>
      <point x="93" y="634" type="curve"/>
      <point x="131" y="658"/>
      <point x="183" y="670"/>
      <point x="234" y="670" type="curve" smooth="yes"/>
      <point x="394" y="670"/>
      <point x="461" y="582"/>
      <point x="461" y="448" type="curve" smooth="yes"/>
      <point x="461" y="263"/>
      <point x="355" y="109"/>
      <point x="96" y="23" type="curve"/>
      <point x="131" y="-12" type="line"/>
      <point x="376" y="67"/>
      <point x="522" y="243"/>
    </contour>
    <contour>
      <point x="-25" y="400" type="curve"/>
      <point x="-27" y="388"/>
      <point x="-27" y="375"/>
      <point x="-27" y="355" type="curve"/>
      <point x="81" y="345"/>
      <point x="175" y="346"/>
      <point x="288" y="365" type="curve"/>
      <point x="290" y="381"/>
      <point x="291" y="397"/>
      <point x="290" y="410" type="curve"/>
      <point x="164" y="388"/>
      <point x="89" y="388"/>
    </contour>
  </outline>
</glyph>
<glyph name="ccedilla" format="1">
  <advance width="408"/>
  <unicode hex="00E7"/>
  <outline>
    <contour>
      <point x="307" y="357" type="curve"/>
      <point x="330" y="357"/>
      <point x="349" y="362"/>
      <point x="366" y="370" type="curve"/>
      <point x="366" y="468"/>
      <point x="322" y="543"/>
      <point x="226" y="543" type="curve" smooth="yes"/>
      <point x="111" y="543"/>
      <point x="28" y="398"/>
      <point x="28" y="200" type="curve" smooth="yes"/>
      <point x="28" y="81"/>
      <point x="68" y="-24"/>
      <point x="187" y="-24" type="curve" smooth="yes"/>
      <point x="270" y="-24"/>
      <point x="344" y="45"/>
      <point x="364" y="122" type="curve"/>
      <point x="354" y="134"/>
      <point x="342" y="142"/>
      <point x="326" y="148" type="curve"/>
      <point x="296" y="72"/>
      <point x="252" y="21"/>
      <point x="195" y="21" type="curve" smooth="yes"/>
      <point x="115" y="21"/>
      <point x="82" y="105"/>
      <point x="82" y="205" type="curve" smooth="yes"/>
      <point x="82" y="348"/>
      <point x="143" y="498"/>
      <point x="228" y="498" type="curve" smooth="yes"/>
      <point x="286" y="498"/>
      <point x="307" y="440"/>
    </contour>
    <contour>
      <point x="192" y="-228" type="curve" smooth="yes"/>
      <point x="256" y="-228"/>
      <point x="300" y="-193"/>
      <point x="300" y="-135" type="curve" smooth="yes"/>
      <point x="300" y="-89"/>
      <point x="265" y="-58"/>
      <point x="214" y="-58" type="curve" smooth="yes"/>
      <point x="190" y="-58"/>
      <point x="167" y="-66"/>
      <point x="143" y="-81" type="curve"/>
      <point x="175" y="-90" type="line"/>
      <point x="199" y="-58"/>
      <point x="209" y="-31"/>
      <point x="212" y="-4" type="curve"/>
      <point x="165" y="6" type="line"/>
      <point x="161" y="-25"/>
      <point x="150" y="-51"/>
      <point x="132" y="-78" type="curve"/>
      <point x="137" y="-86"/>
      <point x="150" y="-98"/>
      <point x="159" y="-105" type="curve"/>
      <point x="171" y="-99"/>
      <point x="182" y="-96"/>
      <point x="193" y="-96" type="curve" smooth="yes"/>
      <point x="222" y="-96"/>
      <point x="240" y="-115"/>
      <point x="240" y="-138" type="curve" smooth="yes"/>
      <point x="240" y="-167"/>
      <point x="220" y="-184"/>
      <point x="190" y="-184" type="curve" smooth="yes"/>
      <point x="163" y="-184"/>
      <point x="141" y="-163"/>
      <point x="131" y="-132" type="curve"/>
      <point x="112" y="-140"/>
      <point x="117" y="-138"/>
      <point x="91" y="-154" type="curve"/>
      <point x="109" y="-203"/>
      <point x="142" y="-228"/>
    </contour>
  </outline>
</glyph>
<glyph name="eogonek" format="1">
  <advance width="416"/>
  <unicode hex="0119"/>
  <outline>
    <contour>
      <point x="304" y="31" type="curve" smooth="yes"/>
      <point x="265" y="1"/>
      <point x="251" y="-39"/>
      <point x="251" y="-71" type="curve" smooth="yes"/>
      <point x="251" y="-97"/>
      <point x="266" y="-118"/>
      <point x="287" y="-118" type="curve" smooth="yes"/>
      <point x="311" y="-118"/>
      <point x="329" y="-105"/>
      <point x="346" y="-73" type="curve"/>
      <point x="357" y="-82"/>
      <point x="363" y="-92"/>
      <point x="369" y="-109" type="curve"/>
      <point x="346" y="-145"/>
      <point x="314" y="-162"/>
      <point x="275" y="-162" type="curve" smooth="yes"/>
      <point x="229" y="-162"/>
      <point x="196" y="-132"/>
      <point x="196" y="-83" type="curve" smooth="yes"/>
      <point x="196" y="-53"/>
      <point x="208" y="-21"/>
      <point x="242" y="14" type="curve"/>
      <point x="244" y="-2" type="line"/>
      <point x="228" y="-8"/>
      <point x="212" y="-10"/>
      <point x="196" y="-10" type="curve" smooth="yes"/>
      <point x="85" y="-10"/>
      <point x="31" y="96"/>
      <point x="31" y="225" type="curve" smooth="yes"/>
      <point x="31" y="357"/>
      <point x="113" y="524"/>
      <point x="244" y="524" type="curve" smooth="yes"/>
      <point x="321" y="524"/>
      <point x="362" y="467"/>
      <point x="362" y="388" type="curve" smooth="yes"/>
      <point x="362" y="332"/>
      <point x="349" y="285"/>
      <point x="337" y="255" type="curve"/>
      <point x="309" y="246"/>
      <point x="272" y="243"/>
      <point x="230" y="243" type="curve" smooth="yes"/>
      <point x="181" y="243"/>
      <point x="126" y="253"/>
      <point x="75" y="274" type="curve"/>
      <point x="73" y="320" type="line"/>
      <point x="135" y="287"/>
      <point x="206" y="284"/>
      <point x="247" y="284" type="curve" smooth="yes"/>
      <point x="261" y="284"/>
      <point x="283" y="286"/>
      <point x="292" y="289" type="curve"/>
      <point x="299" y="316"/>
      <point x="307" y="354"/>
      <point x="307" y="389" type="curve" smooth="yes"/>
      <point x="307" y="445"/>
      <point x="293" y="478"/>
      <point x="239" y="478" type="curve" smooth="yes"/>
      <point x="150" y="478"/>
      <point x="86" y="337"/>
      <point x="86" y="221" type="curve" smooth="yes"/>
      <point x="86" y="121"/>
      <point x="123" y="35"/>
      <point x="195" y="35" type="curve" smooth="yes"/>
      <point x="252" y="35"/>
      <point x="318" y="92"/>
      <point x="339" y="167" type="curve"/>
      <point x="355" y="164"/>
      <point x="373" y="154"/>
      <point x="385" y="141" type="curve"/>
      <point x="365" y="89"/>
      <point x="340" y="59"/>
    </contour>
  </outline>
</glyph>
<glyph name="iogonek" format="1">
  <advance width="189"/>
  <unicode hex="012F"/>
  <outline>
    <contour>
      <point x="108" y="-4" type="curve"/>
      <point x="93" y="161"/>
      <point x="106" y="369"/>
      <point x="130" y="505" type="curve"/>
      <point x="123" y="507"/>
      <point x="117" y="508"/>
      <point x="111" y="508" type="curve" smooth="yes"/>
      <point x="98" y="508"/>
      <point x="86" y="504"/>
      <point x="75" y="498" type="curve"/>
      <point x="49" y="361"/>
      <point x="43" y="166"/>
      <point x="66" y="-7" type="curve"/>
      <point x="70" y="-8"/>
      <point x="75" y="-9"/>
      <point x="82" y="-9" type="curve" smooth="yes"/>
      <point x="92" y="-9"/>
      <point x="101" y="-7"/>
    </contour>
    <contour>
      <point x="139" y="621" type="curve"/>
      <point x="148" y="661"/>
      <point x="163" y="701"/>
      <point x="176" y="729" type="curve"/>
      <point x="164" y="736"/>
      <point x="155" y="738"/>
      <point x="142" y="739" type="curve" smooth="yes"/>
      <point x="129" y="740"/>
      <point x="123" y="739"/>
      <point x="112" y="735" type="curve"/>
      <point x="100" y="709"/>
      <point x="94" y="669"/>
      <point x="94" y="643" type="curve" smooth="yes"/>
      <point x="94" y="635"/>
      <point x="94" y="629"/>
      <point x="95" y="621" type="curve"/>
      <point x="111" y="620"/>
      <point x="129" y="620"/>
    </contour>
    <contour>
      <point x="106" y="-4" type="curve"/>
      <point x="78" y="4" type="line"/>
      <point x="16" y="-39"/>
      <point x="-16" y="-84"/>
      <point x="-16" y="-134" type="curve" smooth="yes"/>
      <point x="-16" y="-178"/>
      <point x="14" y="-208"/>
      <point x="61" y="-208" type="curve" smooth="yes"/>
      <point x="106" y="-208"/>
      <point x="134" y="-187"/>
      <point x="157" y="-151" type="curve"/>
      <point x="151" y="-134"/>
      <point x="145" y="-124"/>
      <point x="134" y="-115" type="curve"/>
      <point x="117" y="-147"/>
      <point x="99" y="-160"/>
      <point x="75" y="-160" type="curve" smooth="yes"/>
      <point x="51" y="-160"/>
      <point x="39" y="-145"/>
      <point x="39" y="-121" type="curve" smooth="yes"/>
      <point x="39" y="-85"/>
      <point x="56" y="-51"/>
    </contour>
  </outline>
</glyph>
<glyph name="OE" format="1">
  <advance width="882"/>
  <unicode hex="0152"/>
  <outline>
    <contour>
      <point x="500" y="372" type="curve" smooth="yes"/>
      <point x="498" y="574"/>
      <point x="434" y="713"/>
      <point x="294" y="713" type="curve" smooth="yes"/>
      <point x="134" y="713"/>
      <point x="48" y="545"/>
      <point x="48" y="322" type="curve" smooth="yes"/>
      <point x="48" y="113"/>
      <point x="143" y="-40"/>
      <point x="284" y="-40" type="curve" smooth="yes"/>
      <point x="449" y="-40"/>
      <point x="502" y="168"/>
    </contour>
    <contour>
      <point x="446" y="357" type="curve" smooth="yes"/>
      <point x="448" y="153"/>
      <point x="398" y="7"/>
      <point x="286" y="7" type="curve" smooth="yes"/>
      <point x="159" y="7"/>
      <point x="109" y="184"/>
      <point x="109" y="331" type="curve" smooth="yes"/>
      <point x="109" y="531"/>
      <point x="171" y="665"/>
      <point x="287" y="665" type="curve" smooth="yes"/>
      <point x="389" y="665"/>
      <point x="444" y="557"/>
    </contour>
    <contour>
      <point x="840" y="-14" type="curve"/>
      <point x="842" y="-2"/>
      <point x="842" y="19"/>
      <point x="838" y="36" type="curve"/>
      <point x="742" y="15"/>
      <point x="664" y="8"/>
      <point x="550" y="4" type="curve"/>
      <point x="530" y="131"/>
      <point x="517" y="249"/>
      <point x="509" y="334" type="curve" smooth="yes"/>
      <point x="496" y="477"/>
      <point x="493" y="582"/>
      <point x="495" y="687" type="curve"/>
      <point x="435" y="693" type="line"/>
      <point x="438" y="510"/>
      <point x="462" y="234"/>
      <point x="503" y="-41" type="curve"/>
      <point x="607" y="-38"/>
      <point x="700" y="-33"/>
    </contour>
    <contour>
      <point x="771" y="367" type="curve"/>
      <point x="772" y="384"/>
      <point x="770" y="399"/>
      <point x="767" y="412" type="curve"/>
      <point x="661" y="402"/>
      <point x="584" y="388"/>
      <point x="489" y="373" type="curve"/>
      <point x="491" y="330" type="line"/>
      <point x="587" y="348"/>
      <point x="646" y="357"/>
    </contour>
    <contour>
      <point x="814" y="688" type="curve"/>
      <point x="817" y="703"/>
      <point x="818" y="718"/>
      <point x="817" y="735" type="curve"/>
      <point x="659" y="731"/>
      <point x="561" y="715"/>
      <point x="435" y="693" type="curve"/>
      <point x="457" y="650" type="line"/>
      <point x="565" y="672"/>
      <point x="676" y="687"/>
    </contour>
  </outline>
</glyph>
<glyph name="uogonek" format="1">
  <advance width="386"/>
  <unicode hex="0173"/>
  <outline>
    <contour>
      <point x="251" y="14" type="curve" smooth="yes"/>
      <point x="322" y="66"/>
      <point x="345" y="207"/>
      <point x="345" y="355" type="curve" smooth="yes"/>
      <point x="345" y="399"/>
      <point x="341" y="443"/>
      <point x="335" y="472" type="curve"/>
      <point x="319" y="472"/>
      <point x="294" y="468"/>
      <point x="278" y="461" type="curve"/>
      <point x="282" y="445"/>
      <point x="290" y="384"/>
      <point x="290" y="320" type="curve" smooth="yes"/>
      <point x="290" y="182"/>
      <point x="268" y="35"/>
      <point x="185" y="35" type="curve" smooth="yes"/>
      <point x="120" y="35"/>
      <point x="94" y="156"/>
      <point x="94" y="261" type="curve" smooth="yes"/>
      <point x="94" y="370"/>
      <point x="107" y="451"/>
      <point x="127" y="510" type="curve"/>
      <point x="121" y="513"/>
      <point x="114" y="515"/>
      <point x="106" y="515" type="curve" smooth="yes"/>
      <point x="96" y="515"/>
      <point x="87" y="513"/>
      <point x="80" y="510" type="curve"/>
      <point x="56" y="465"/>
      <point x="41" y="358"/>
      <point x="41" y="271" type="curve" smooth="yes"/>
      <point x="41" y="131"/>
      <point x="68" y="-10"/>
      <point x="177" y="-10" type="curve" smooth="yes"/>
      <point x="193" y="-10"/>
      <point x="207" y="-7"/>
      <point x="221" y="-2" type="curve"/>
      <point x="204" y="11" type="line"/>
      <point x="142" y="-38"/>
      <point x="121" y="-78"/>
      <point x="121" y="-118" type="curve" smooth="yes"/>
      <point x="121" y="-167"/>
      <point x="154" y="-190"/>
      <point x="200" y="-190" type="curve" smooth="yes"/>
      <point x="239" y="-190"/>
      <point x="271" y="-173"/>
      <point x="294" y="-137" type="curve"/>
      <point x="288" y="-120"/>
      <point x="282" y="-110"/>
      <point x="271" y="-101" type="curve"/>
      <point x="254" y="-133"/>
      <point x="236" y="-146"/>
      <point x="212" y="-146" type="curve" smooth="yes"/>
      <point x="191" y="-146"/>
      <point x="176" y="-128"/>
      <point x="176" y="-106" type="curve" smooth="yes"/>
      <point x="176" y="-69"/>
      <point x="200" y="-23"/>
    </contour>
  </outline>
</glyph>
<glyph name="circumflex" format="1">
  <advance width="260"/>
  <unicode hex="02C6"/>
  <outline>
    <contour>
      <point x="255" y="607" type="curve"/>
      <point x="244.330253686" y="597.300230624"/>
      <point x="236.257408179" y="590.675116078"/>
      <point x="221" y="584" type="curve"/>
      <point x="161" y="625"/>
      <point x="138.100595329" y="653.128987941"/>
      <point x="107" y="706" type="curve"/>
      <point x="152" y="709" type="line"/>
      <point x="126.080141655" y="658.197077644"/>
      <point x="99.7276816574" y="625.50937716"/>
      <point x="39" y="583" type="curve"/>
      <point x="23.706977303" y="590.646511348"/>
      <point x="13.7242231153" y="598.245135009"/>
      <point x="5" y="606" type="curve"/>
      <point x="61.6275748916" y="657.571541419"/>
      <point x="83" y="686"/>
      <point x="105" y="736" type="curve"/>
      <point x="111.539069809" y="737.86830566"/>
      <point x="123.571428571" y="739.0"/>
      <point x="131" y="739" type="curve" smooth="yes"/>
      <point x="136.52" y="739.0"/>
      <point x="148.466479543" y="737.92225341"/>
      <point x="154" y="737" type="curve"/>
      <point x="177.074260222" y="683.828878619"/>
      <point x="204.450429265" y="653.505605077"/>
    </contour>
    <contour>
      <point x="131.0" y="560.0" type="move" name="_top"/>
    </contour>
  </outline>
</glyph>
<glyph name="quoteleft" format="1">
  <advance width="129"/>
  <unicode hex="2018"/>
  <outline>
    <contour>
      <point x="10" y="734" type="curve"/>
      <point x="10" y="654"/>
      <point x="25" y="579"/>
      <point x="57" y="488" type="curve"/>
      <point x="69" y="487"/>
      <point x="80" y="487"/>
      <point x="94" y="489" type="curve"/>
      <point x="65" y="604"/>
      <point x="64" y="678"/>
      <point x="67" y="741" type="curve"/>
      <point x="45" y="742"/>
      <point x="27" y="739"/>
    </contour>
  </outline>
</glyph>
<glyph name="bullet" format="1">
  <advance width="203"/>
  <unicode hex="2022"/>
  <outline>
    <contour>
      <point x="165" y="257"/>
      <point x="167" y="292"/>
      <point x="168" y="333" type="curve"/>
      <point x="111" y="340"/>
      <point x="68" y="336"/>
      <point x="35" y="327" type="curve"/>
      <point x="35" y="286"/>
      <point x="37" y="262"/>
      <point x="40" y="217" type="curve"/>
      <point x="77" y="213"/>
      <point x="111" y="213"/>
      <point x="158" y="217" type="curve"/>
    </contour>
  </outline>
</glyph>
<glyph name="Euro" format="1">
  <advance width="497"/>
  <unicode hex="20AC"/>
  <outline>
    <contour>
      <point x="409" y="210" type="curve"/>
      <point x="412.728768875" y="87.8828193349"/>
      <point x="372.0" y="4.0"/>
      <point x="294" y="4" type="curve" smooth="yes"/>
      <point x="205" y="4"/>
      <point x="160" y="104"/>
      <point x="160" y="291" type="curve" smooth="yes"/>
      <point x="160" y="516"/>
      <point x="244" y="624"/>
      <point x="325" y="624" type="curve" smooth="yes"/>
      <point x="396.0" y="624.0"/>
      <point x="424" y="567"/>
      <point x="410" y="430" type="curve"/>
      <point x="428" y="431"/>
      <point x="445" y="434"/>
      <point x="459" y="440" type="curve"/>
      <point x="471" y="600"/>
      <point x="428" y="668"/>
      <point x="334" y="668" type="curve" smooth="yes"/>
      <point x="196" y="668"/>
      <point x="105" y="515"/>
      <point x="105" y="281" type="curve" smooth="yes"/>
      <point x="105" y="74"/>
      <point x="174" y="-40"/>
      <point x="283" y="-40" type="curve" smooth="yes"/>
      <point x="401.0" y="-40.0"/>
      <point x="451.636546476" y="49.4324614159"/>
      <point x="462" y="203" type="curve"/>
      <point x="443" y="210"/>
      <point x="428" y="211"/>
    </contour>
    <contour>
      <point x="329" y="353" type="curve"/>
      <point x="332" y="365"/>
      <point x="334" y="379"/>
      <point x="334" y="393" type="curve"/>
      <point x="202" y="374"/>
      <point x="132" y="368"/>
      <point x="18" y="375" type="curve"/>
      <point x="15" y="362"/>
      <point x="15" y="348"/>
      <point x="16" y="333" type="curve"/>
      <point x="133" y="327"/>
      <point x="207" y="334"/>
    </contour>
    <contour>
      <point x="329" y="223" type="curve"/>
      <point x="332" y="235"/>
      <point x="334" y="249"/>
      <point x="334" y="263" type="curve"/>
      <point x="202" y="244"/>
      <point x="132" y="238"/>
      <point x="18" y="245" type="curve"/>
      <point x="15" y="232"/>
      <point x="15" y="218"/>
      <point x="16" y="203" type="curve"/>
      <point x="133" y="197"/>
      <point x="207" y="204"/>
    </contour>
  </outline>
</glyph>
<glyph name="uni20BA" format="1">
  <advance width="489"/>
  <unicode hex="20BA"/>
  <outline>
    <contour>
      <point x="469" y="304" type="curve"/>
      <point x="454.111934033" y="312.374537106"/>
      <point x="439.164879869" y="318.436933364"/>
      <point x="420" y="323" type="curve"/>
      <point x="390" y="119"/>
      <point x="309" y="61"/>
      <point x="190" y="54" type="curve"/>
      <point x="169.834352315" y="195.159533795"/>
      <point x="162.906325297" y="301.428313812"/>
      <point x="162" y="412" type="curve" smooth="yes"/>
      <point x="161" y="506"/>
      <point x="161" y="593"/>
      <point x="169" y="687" type="curve"/>
      <point x="162" y="689"/>
      <point x="155" y="690"/>
      <point x="147" y="690" type="curve" smooth="yes"/>
      <point x="133" y="690"/>
      <point x="120" y="687"/>
      <point x="105" y="681" type="curve"/>
      <point x="93.6702613835" y="458.181807209"/>
      <point x="105.328958397" y="277.470075766"/>
      <point x="144" y="3" type="curve"/>
      <point x="330" y="16"/>
      <point x="435" y="79"/>
    </contour>
    <contour>
      <point x="329" y="428" type="curve"/>
      <point x="332" y="440"/>
      <point x="334" y="454"/>
      <point x="334" y="468" type="curve"/>
      <point x="202" y="449"/>
      <point x="132" y="443"/>
      <point x="18" y="450" type="curve"/>
      <point x="15" y="437"/>
      <point x="15" y="423"/>
      <point x="16" y="408" type="curve"/>
      <point x="133" y="402"/>
      <point x="207" y="409"/>
    </contour>
    <contour>
      <point x="329" y="298" type="curve"/>
      <point x="332" y="310"/>
      <point x="334" y="324"/>
      <point x="334" y="338" type="curve"/>
      <point x="202" y="319"/>
      <point x="132" y="313"/>
      <point x="18" y="320" type="curve"/>
      <point x="15" y="307"/>
      <point x="15" y="293"/>
      <point x="16" y="278" type="curve"/>
      <point x="133" y="272"/>
      <point x="207" y="279"/>
    </contour>
  </outline>
</glyph>
<glyph name="uni20BD" format="1">
  <advance width="564"/>
  <unicode hex="20BD"/>
  <outline>
    <contour>
      <point x="214" y="-18" type="curve"/>
      <point x="200" y="142"/>
      <point x="195" y="243"/>
      <point x="195" y="387" type="curve" smooth="yes"/>
      <point x="195" y="471"/>
      <point x="201" y="555"/>
      <point x="213" y="674" type="curve"/>
      <point x="148" y="686" type="line"/>
      <point x="144" y="637"/>
      <point x="141" y="551"/>
      <point x="141" y="503" type="curve" smooth="yes"/>
      <point x="141" y="333"/>
      <point x="144" y="232"/>
      <point x="164" y="-17" type="curve"/>
      <point x="180" y="-20"/>
      <point x="197" y="-21"/>
    </contour>
    <contour>
      <point x="509" y="532" type="curve" smooth="yes"/>
      <point x="509" y="633"/>
      <point x="436" y="707"/>
      <point x="279" y="707" type="curve" smooth="yes"/>
      <point x="238" y="707"/>
      <point x="187" y="699"/>
      <point x="148" y="686" type="curve"/>
      <point x="168" y="641" type="line"/>
      <point x="198" y="655"/>
      <point x="243" y="663"/>
      <point x="284" y="663" type="curve" smooth="yes"/>
      <point x="395" y="663"/>
      <point x="452" y="612"/>
      <point x="452" y="530" type="curve" smooth="yes"/>
      <point x="452" y="415"/>
      <point x="345" y="327"/>
      <point x="42" y="350" type="curve"/>
      <point x="39" y="340"/>
      <point x="38" y="324"/>
      <point x="39" y="306" type="curve"/>
      <point x="340" y="280"/>
      <point x="509" y="383"/>
    </contour>
    <contour>
      <point x="356" y="192" type="curve"/>
      <point x="359" y="204"/>
      <point x="360" y="219"/>
      <point x="360" y="233" type="curve"/>
      <point x="228" y="214"/>
      <point x="152" y="214"/>
      <point x="38" y="221" type="curve"/>
      <point x="35" y="208"/>
      <point x="35" y="194"/>
      <point x="36" y="179" type="curve"/>
      <point x="117" y="171"/>
      <point x="237" y="174"/>
    </contour>
  </outline>
</glyph>
<glyph name="uni2206" format="1">
  <advance width="589"/>
  <unicode hex="2206"/>
  <outline>
    <contour>
      <point x="552" y="66" type="line"/>
      <point x="419" y="44"/>
      <point x="179" y="48"/>
      <point x="56" y="77" type="curve"/>
      <point x="69" y="40" type="line"/>
      <point x="135" y="292"/>
      <point x="213" y="523"/>
      <point x="323" y="754" type="curve"/>
      <point x="294" y="763" type="line"/>
      <point x="387" y="554"/>
      <point x="472" y="285"/>
      <point x="513" y="27" type="curve"/>
    </contour>
    <contour>
      <point x="576" y="8" type="curve"/>
      <point x="540" y="248"/>
      <point x="443" y="561"/>
      <point x="345" y="783" type="curve"/>
      <point x="325" y="787"/>
      <point x="308" y="788"/>
      <point x="282" y="790" type="curve"/>
      <point x="169" y="552"/>
      <point x="98" y="344"/>
      <point x="7" y="27" type="curve"/>
      <point x="209" y="-9"/>
      <point x="418" y="-11"/>
    </contour>
  </outline>
</glyph>
<glyph name="fi" format="1">
  <advance width="472"/>
  <unicode hex="FB01"/>
  <outline>
    <contour>
      <point x="96" y="402" type="curve" smooth="yes"/>
      <point x="96" y="637"/>
      <point x="142" y="727"/>
      <point x="231" y="727" type="curve" smooth="yes"/>
      <point x="290" y="727"/>
      <point x="319" y="676"/>
      <point x="319" y="614" type="curve" smooth="yes"/>
      <point x="319" y="593"/>
      <point x="313" y="565"/>
      <point x="306" y="552" type="curve"/>
      <point x="289" y="552"/>
      <point x="273" y="555"/>
      <point x="258" y="561" type="curve"/>
      <point x="263" y="577"/>
      <point x="268" y="597"/>
      <point x="268" y="621" type="curve" smooth="yes"/>
      <point x="268" y="656"/>
      <point x="254" y="682"/>
      <point x="231" y="682" type="curve" smooth="yes"/>
      <point x="177" y="682"/>
      <point x="147" y="599"/>
      <point x="147" y="448" type="curve" smooth="yes"/>
      <point x="147" y="274"/>
      <point x="161" y="117"/>
      <point x="191" y="-9" type="curve"/>
      <point x="174" y="-15"/>
      <point x="154" y="-21"/>
      <point x="135" y="-21" type="curve"/>
      <point x="122" y="38"/>
      <point x="96" y="236"/>
    </contour>
    <contour>
      <point x="297" y="434" type="curve"/>
      <point x="297" y="419"/>
      <point x="294" y="398"/>
      <point x="292" y="386" type="curve"/>
      <point x="281" y="384"/>
      <point x="263" y="382"/>
      <point x="224" y="382" type="curve" smooth="yes"/>
      <point x="141" y="382"/>
      <point x="63" y="395"/>
      <point x="34" y="407" type="curve"/>
      <point x="34" y="416"/>
      <point x="35" y="437"/>
      <point x="40" y="442" type="curve"/>
      <point x="97" y="433"/>
      <point x="160" y="428"/>
      <point x="229" y="428" type="curve" smooth="yes"/>
      <point x="257" y="428"/>
      <point x="280" y="431"/>
    </contour>
    <contour>
      <point x="431" y="641"/>
      <point x="446" y="681"/>
      <point x="459" y="709" type="curve"/>
      <point x="447" y="716"/>
      <point x="438" y="718"/>
      <point x="425" y="719" type="curve" smooth="yes"/>
      <point x="412" y="720"/>
      <point x="406" y="719"/>
      <point x="395" y="715" type="curve"/>
      <point x="383" y="689"/>
      <point x="377" y="649"/>
      <point x="377" y="623" type="curve" smooth="yes"/>
      <point x="377" y="615"/>
      <point x="377" y="609"/>
      <point x="378" y="601" type="curve"/>
      <point x="394" y="600"/>
      <point x="412" y="600"/>
      <point x="422" y="601" type="curve"/>
    </contour>
    <contour>
      <point x="406" y="487"/>
      <point x="400" y="488"/>
      <point x="394" y="488" type="curve" smooth="yes"/>
      <point x="381" y="488"/>
      <point x="369" y="484"/>
      <point x="358" y="478" type="curve"/>
      <point x="332" y="341"/>
      <point x="326" y="146"/>
      <point x="349" y="-27" type="curve"/>
      <point x="353" y="-28"/>
      <point x="358" y="-29"/>
      <point x="365" y="-29" type="curve" smooth="yes"/>
      <point x="375" y="-29"/>
      <point x="384" y="-27"/>
      <point x="391" y="-24" type="curve"/>
      <point x="376" y="141"/>
      <point x="389" y="349"/>
      <point x="413" y="485" type="curve"/>
    </contour>
  </outline>
</glyph>
